<?xml version="1.0" encoding="UTF-8" standalone="no"?>
<!-- Created with Inkscape (http://www.inkscape.org/) -->

<svg
   xmlns:dc="http://purl.org/dc/elements/1.1/"
   xmlns:cc="http://creativecommons.org/ns#"
   xmlns:rdf="http://www.w3.org/1999/02/22-rdf-syntax-ns#"
   xmlns:svg="http://www.w3.org/2000/svg"
   xmlns="http://www.w3.org/2000/svg"
   xmlns:sodipodi="http://sodipodi.sourceforge.net/DTD/sodipodi-0.dtd"
   xmlns:inkscape="http://www.inkscape.org/namespaces/inkscape"
   width="600"
   height="400"
   viewBox="0 0 158.75 105.83334"
   version="1.1"
   id="svg8"
   inkscape:version="0.92.1 r15371"
   sodipodi:docname="logo.svg">
  <defs
     id="defs2" />
  <sodipodi:namedview
     id="base"
     pagecolor="#ffffff"
     bordercolor="#666666"
     borderopacity="1.0"
     inkscape:pageopacity="0.0"
     inkscape:pageshadow="2"
     inkscape:zoom="1.4"
     inkscape:cx="245.32137"
     inkscape:cy="218.93703"
     inkscape:document-units="mm"
     inkscape:current-layer="layer1"
     showgrid="false"
     units="px"
     inkscape:window-width="1916"
     inkscape:window-height="1056"
     inkscape:window-x="0"
     inkscape:window-y="20"
     inkscape:window-maximized="1" />
  <metadata
     id="metadata5">
    <rdf:RDF>
      <cc:Work
         rdf:about="">
        <dc:format>image/svg+xml</dc:format>
        <dc:type
           rdf:resource="http://purl.org/dc/dcmitype/StillImage" />
        <dc:title></dc:title>
      </cc:Work>
    </rdf:RDF>
  </metadata>
  <g
     inkscape:label="Layer 1"
     inkscape:groupmode="layer"
     id="layer1"
     transform="translate(0,-191.16665)">
    <path
       style="fill:#000000;fill-opacity:1;stroke:none;stroke-width:1.49392402;stroke-linecap:round;stroke-linejoin:round;stroke-miterlimit:4;stroke-dasharray:none;stroke-dashoffset:0;stroke-opacity:1;paint-order:normal"
       id="path4501"
       d="m 11.583094,265.44983 c 4.122217,0.44152 8.260865,0.50371 12.392046,0.62179 6.30334,0.15951 12.524366,-1.42352 18.461847,-4.50575 3.726443,-1.93446 6.239688,-3.79783 9.817504,-6.23526 4.428426,-3.19972 8.723717,-6.76865 13.058546,-10.22582 2.452986,-1.95635 4.657726,-3.74735 7.191456,-5.45058 1.090703,-0.73319 2.211168,-1.36757 3.316751,-2.05136 8.414596,-4.39957 11.17458,-6.05131 17.803317,-4.84649 0.81655,0.17138 1.65077,0.21333 2.449655,0.5142 4.378644,1.64906 8.531954,7.66038 11.878404,11.87642 4.40008,5.4597 8.71495,11.11269 13.39211,16.07147 0.83402,0.88424 1.69539,1.71187 2.54309,2.5678 3.89726,3.79139 8.32924,6.09818 12.98249,6.82965 0.91432,0.14374 1.83635,0.14858 2.75453,0.22282 0.91507,-0.11739 1.83954,-0.12763 2.74523,-0.35194 1.95548,-0.48462 3.45195,-1.28998 5.20779,-2.62564 0.81517,-0.62008 3.19508,-2.6427 2.35844,-2.08719 -4.87041,3.23386 -7.05826,6.31792 -3.40423,1.7327 1.7315,-2.53243 0.94489,-1.30091 2.37876,-3.66853 l 8.30127,-5.10268 v 0 c -1.62542,2.57249 -0.74874,1.23555 -2.64246,3.99326 -4.49363,5.80967 -1.64769,2.40049 -11.25897,10.89769 -3.44227,3.04327 -6.55804,4.51294 -10.60927,4.46988 -0.93123,-0.11036 -1.86691,-0.15796 -2.79367,-0.33096 -4.83411,-0.9026 -9.11004,-3.26988 -13.09543,-7.38927 -0.83508,-0.88849 -1.68329,-1.75106 -2.50523,-2.6654 -4.60171,-5.11898 -8.86173,-10.86168 -13.37569,-16.13973 -3.404119,-4.0487 -7.536396,-9.57792 -11.937524,-10.97378 -0.761383,-0.24149 -1.547762,-0.26235 -2.321646,-0.39352 -0.82815,0.0395 -1.65764,0.0389 -2.484457,0.11811 -5.062457,0.48544 -10.075226,2.0074 -14.801979,4.72074 -1.067459,0.66824 -2.148088,1.29309 -3.202376,2.00469 -2.359648,1.59266 -4.643306,3.40901 -6.93151,5.20562 -4.256596,3.3421 -8.477801,6.78679 -12.829742,9.86174 -3.713847,2.47987 -6.039175,4.18665 -9.908473,6.14929 -6.161377,3.12528 -12.597148,4.70548 -19.115007,4.80121 -4.521266,0.12266 -9.047379,0.20575 -13.5614745,0.6218 l 7.7459025,-8.23708 z"
       inkscape:connector-curvature="0"
       sodipodi:nodetypes="ccccccccccccccccccccccccccccccccsccccccc" />
    <path
       style="fill:#000000;fill-opacity:1;stroke:none;stroke-width:1.43977261;stroke-linecap:round;stroke-linejoin:round;stroke-miterlimit:4;stroke-dasharray:none;stroke-dashoffset:0;stroke-opacity:1;paint-order:normal"
       id="path4503"
       d="m 29.97779,246.63191 c 4.519007,0.67927 9.046845,1.26338 13.579764,1.75553 11.57916,1.22208 23.195146,1.55933 34.80456,1.67847 8.865514,-0.33153 17.849565,-1.6229 26.072226,-6.46799 6.96619,-4.10473 7.46077,-3.83211 4.46153,-3.98724 5.58297,-6.30651 9.93674,-14.17521 13.23487,-22.92541 1.52202,-4.03805 1.85396,-5.45484 3.0178,-9.48988 1.0293,-4.21722 0.59176,-2.25338 1.34481,-5.87803 0,0 8.0016,-5.09721 8.0016,-5.09721 v 0 c -1.14505,3.90377 -0.51504,1.796 -1.90097,6.31721 -1.79139,5.40517 -3.63127,10.77803 -5.96286,15.80647 -3.06333,6.60648 -6.71268,12.63985 -11.103,17.70412 -5.40093,4.7075 -10.64064,10.03968 -16.623398,13.40329 -8.264143,4.64624 -17.24728,5.74973 -26.092925,6.09105 -11.92355,-0.0398 -23.850495,-0.15996 -35.766073,-0.8016 -4.923586,-0.25535 -9.862155,-0.76859 -14.788847,-0.48271 0,0 7.720913,-7.62607 7.720913,-7.62607 z"
       inkscape:connector-curvature="0" />
  </g>
</svg>
